<svg width="1200" height="800" viewBox="0 0 1200 800" fill="none" xmlns="http://www.w3.org/2000/svg">
  <rect width="1200" height="800" rx="36" fill="#F5F3EC"/>
  <rect x="180" y="120" width="520" height="560" rx="30" fill="#FFFFFF"/>
  <rect x="230" y="180" width="180" height="180" rx="20" fill="#D7D3C4"/>
  <rect x="450" y="190" width="190" height="18" rx="9" fill="#B8BEA0"/>
  <rect x="450" y="238" width="160" height="14" rx="7" fill="#D7D3C4"/>
  <rect x="230" y="405" width="410" height="14" rx="7" fill="#D7D3C4"/>
  <rect x="230" y="445" width="360" height="14" rx="7" fill="#D7D3C4"/>
  <rect x="230" y="485" width="390" height="14" rx="7" fill="#D7D3C4"/>
  <rect x="230" y="565" width="130" height="46" rx="23" fill="#B8BEA0"/>
  <rect x="775" y="210" width="250" height="250" rx="20" fill="#FFFFFF"/>
  <rect x="806" y="241" width="56" height="56" fill="#B8BEA0"/>
  <rect x="874" y="241" width="24" height="24" fill="#B8BEA0"/>
  <rect x="910" y="241" width="24" height="56" fill="#B8BEA0"/>
  <rect x="946" y="241" width="48" height="24" fill="#B8BEA0"/>
  <rect x="806" y="309" width="24" height="24" fill="#B8BEA0"/>
  <rect x="842" y="309" width="56" height="56" fill="#B8BEA0"/>
  <rect x="910" y="309" width="24" height="24" fill="#B8BEA0"/>
  <rect x="946" y="309" width="48" height="56" fill="#B8BEA0"/>
  <rect x="806" y="377" width="56" height="56" fill="#B8BEA0"/>
  <rect x="874" y="377" width="24" height="24" fill="#B8BEA0"/>
  <rect x="910" y="377" width="56" height="24" fill="#B8BEA0"/>
  <rect x="910" y="409" width="24" height="24" fill="#B8BEA0"/>
  <rect x="775" y="518" width="250" height="22" rx="11" fill="#B8BEA0"/>
  <rect x="775" y="563" width="210" height="14" rx="7" fill="#D7D3C4"/>
  <rect x="775" y="598" width="230" height="14" rx="7" fill="#D7D3C4"/>
</svg>
